<?xml version="1.0" encoding="UTF-8" standalone="no"?>
<!-- Created with Inkscape (http://www.inkscape.org/) -->

<svg
   width="240mm"
   height="120mm"
   viewBox="0 0 240 120"
   version="1.1"
   id="svg8"
   inkscape:version="1.4.2 (ebf0e940d0, 2025-05-08)"
   sodipodi:docname="template.svg"
   xmlns:inkscape="http://www.inkscape.org/namespaces/inkscape"
   xmlns:sodipodi="http://sodipodi.sourceforge.net/DTD/sodipodi-0.dtd"
   xmlns="http://www.w3.org/2000/svg"
   xmlns:svg="http://www.w3.org/2000/svg"
   xmlns:rdf="http://www.w3.org/1999/02/22-rdf-syntax-ns#"
   xmlns:cc="http://creativecommons.org/ns#"
   xmlns:dc="http://purl.org/dc/elements/1.1/">
  <defs
     id="defs2" />
  <sodipodi:namedview
     id="base"
     pagecolor="#ffffff"
     bordercolor="#666666"
     borderopacity="1.0"
     inkscape:pageopacity="0.0"
     inkscape:pageshadow="2"
     inkscape:zoom="1.1724209"
     inkscape:cx="307.90991"
     inkscape:cy="-148.83734"
     inkscape:document-units="mm"
     inkscape:current-layer="layer2"
     showgrid="false"
     showborder="true"
     width="200mm"
     showguides="true"
     inkscape:guide-bbox="true"
     inkscape:window-width="1366"
     inkscape:window-height="768"
     inkscape:window-x="0"
     inkscape:window-y="0"
     inkscape:window-maximized="1"
     inkscape:showpageshadow="2"
     inkscape:pagecheckerboard="0"
     inkscape:deskcolor="#d1d1d1">
    <inkscape:grid
       type="xygrid"
       id="grid815"
       units="mm"
       spacingx="10"
       spacingy="10"
       empspacing="4"
       dotted="false"
       originx="0"
       originy="0" />
  </sodipodi:namedview>
  <metadata
     id="metadata5">
    <rdf:RDF>
      <cc:Work
         rdf:about="">
        <dc:format>image/svg+xml</dc:format>
        <dc:type
           rdf:resource="http://purl.org/dc/dcmitype/StillImage" />
        <dc:title />
      </cc:Work>
    </rdf:RDF>
  </metadata>
  <rect
     style="fill:#e6e6e6;stroke:none;stroke-width:1.56573;stroke-linecap:round;stroke-linejoin:round;paint-order:stroke fill markers"
     id="rect4"
     width="165.94809"
     height="70.171951"
     x="-0.18514255"
     y="-90.473259"
     sodipodi:insensitive="true" />
  <g
     inkscape:label="Main Layer"
     inkscape:groupmode="layer"
     id="layer1"
     transform="translate(0,-177)" />
  <g
     inkscape:groupmode="layer"
     id="layer2"
     inkscape:label="Styles">
    <path
       style="font-variation-settings:normal;opacity:1;fill:none;fill-opacity:1;stroke:#000000;stroke-width:1.983;stroke-linecap:round;stroke-linejoin:round;stroke-miterlimit:4;stroke-dasharray:5.949, 5.949;stroke-dashoffset:0;stroke-opacity:1;paint-order:stroke fill markers;stop-color:#000000;stop-opacity:1"
       id="path23"
       sodipodi:type="arc"
       sodipodi:cx="119.12371"
       sodipodi:cy="-30.704197"
       sodipodi:rx="7.0830002"
       sodipodi:ry="7.0831714"
       sodipodi:start="0"
       sodipodi:end="6.2027722"
       sodipodi:arc-type="arc"
       d="m 126.20671,-30.704197 a 7.0830002,7.0831714 0 0 1 -6.94062,7.08174 7.0830002,7.0831714 0 0 1 -7.21966,-6.797027 7.0830002,7.0831714 0 0 1 6.65037,-7.355006 7.0830002,7.0831714 0 0 1 7.48702,6.501327"
       sodipodi:open="true"
       inkscape:label="C-TSL" />
    <path
       style="fill:none;stroke:#000000;stroke-width:1.983;stroke-linecap:round;stroke-linejoin:round;stroke-dasharray:1.983, 5.949;stroke-dashoffset:0;paint-order:stroke fill markers"
       id="path24"
       sodipodi:type="arc"
       sodipodi:cx="119.16953"
       sodipodi:cy="-47.20673"
       sodipodi:rx="7.0831714"
       sodipodi:ry="7.0831714"
       sodipodi:start="0"
       sodipodi:end="6.2027722"
       sodipodi:arc-type="arc"
       d="m 126.2527,-47.20673 a 7.0831714,7.0831714 0 0 1 -6.94078,7.08174 7.0831714,7.0831714 0 0 1 -7.21983,-6.797027 7.0831714,7.0831714 0 0 1 6.65052,-7.355006 7.0831714,7.0831714 0 0 1 7.48721,6.501327"
       sodipodi:open="true"
       inkscape:label="TDL" />
    <path
       style="fill:none;stroke:#000000;stroke-width:1.983;stroke-linecap:round;stroke-linejoin:round;stroke-dasharray:none;paint-order:stroke fill markers"
       id="path25"
       sodipodi:type="arc"
       sodipodi:cx="119.16952"
       sodipodi:cy="-63.511112"
       sodipodi:rx="7.0831714"
       sodipodi:ry="7.0831714"
       sodipodi:start="0"
       sodipodi:end="6.2027722"
       sodipodi:arc-type="arc"
       d="m 126.25269,-63.511112 a 7.0831714,7.0831714 0 0 1 -6.94079,7.08174 7.0831714,7.0831714 0 0 1 -7.21983,-6.797027 7.0831714,7.0831714 0 0 1 6.65052,-7.355007 7.0831714,7.0831714 0 0 1 7.48721,6.501328"
       sodipodi:open="true"
       inkscape:label="TLL" />
    <path
       style="font-variation-settings:normal;opacity:1;fill:none;fill-opacity:1;stroke:#000000;stroke-width:0.983;stroke-linecap:round;stroke-linejoin:round;stroke-miterlimit:4;stroke-dasharray:2.949, 2.949;stroke-dashoffset:0;stroke-opacity:1;paint-order:stroke fill markers;stop-color:#000000;stop-opacity:1"
       id="path12"
       sodipodi:type="arc"
       sodipodi:cx="64.090385"
       sodipodi:cy="-30.704197"
       sodipodi:rx="7.0830002"
       sodipodi:ry="7.0831714"
       sodipodi:start="0"
       sodipodi:end="6.2027722"
       sodipodi:arc-type="arc"
       d="m 71.173386,-30.704197 a 7.0830002,7.0831714 0 0 1 -6.940619,7.08174 7.0830002,7.0831714 0 0 1 -7.219657,-6.797027 7.0830002,7.0831714 0 0 1 6.65036,-7.355006 7.0830002,7.0831714 0 0 1 7.487028,6.501327"
       sodipodi:open="true"
       inkscape:label="TSM" />
    <path
       style="fill:none;stroke:#000000;stroke-width:0.983;stroke-linecap:round;stroke-linejoin:round;stroke-dasharray:0.983, 2.949;stroke-dashoffset:0;paint-order:stroke fill markers"
       id="path13"
       sodipodi:type="arc"
       sodipodi:cx="64.136192"
       sodipodi:cy="-47.20673"
       sodipodi:rx="7.0831714"
       sodipodi:ry="7.0831714"
       sodipodi:start="0"
       sodipodi:end="6.2027722"
       sodipodi:arc-type="arc"
       d="m 71.219364,-47.20673 a 7.0831714,7.0831714 0 0 1 -6.940786,7.08174 7.0831714,7.0831714 0 0 1 -7.219833,-6.797027 7.0831714,7.0831714 0 0 1 6.650521,-7.355006 7.0831714,7.0831714 0 0 1 7.487209,6.501327"
       sodipodi:open="true"
       inkscape:label="TDM" />
    <path
       style="fill:none;stroke:#000000;stroke-width:0.983;stroke-linecap:round;stroke-linejoin:round;stroke-dasharray:none;paint-order:stroke fill markers"
       id="path14"
       sodipodi:type="arc"
       sodipodi:cx="64.136192"
       sodipodi:cy="-63.511112"
       sodipodi:rx="7.0831714"
       sodipodi:ry="7.0831714"
       sodipodi:start="0"
       sodipodi:end="6.2027722"
       sodipodi:arc-type="arc"
       d="m 71.219364,-63.511112 a 7.0831714,7.0831714 0 0 1 -6.940786,7.08174 7.0831714,7.0831714 0 0 1 -7.219833,-6.797027 7.0831714,7.0831714 0 0 1 6.650521,-7.355007 7.0831714,7.0831714 0 0 1 7.487209,6.501328"
       sodipodi:open="true"
       inkscape:label="TLM" />
    <path
       style="font-variation-settings:normal;opacity:1;fill:none;fill-opacity:1;stroke:#000000;stroke-width:0.383;stroke-linecap:round;stroke-linejoin:round;stroke-miterlimit:4;stroke-dasharray:2.298, 2.298;stroke-dashoffset:0;stroke-opacity:1;paint-order:stroke fill markers;stop-color:#000000;stop-opacity:1"
       id="path6-5"
       sodipodi:type="arc"
       sodipodi:cx="11.173677"
       sodipodi:cy="-30.704197"
       sodipodi:rx="7.0830002"
       sodipodi:ry="7.0831714"
       sodipodi:start="0"
       sodipodi:end="6.2027722"
       sodipodi:arc-type="arc"
       d="m 18.256678,-30.704197 a 7.0830002,7.0831714 0 0 1 -6.940619,7.08174 7.0830002,7.0831714 0 0 1 -7.2196574,-6.797027 7.0830002,7.0831714 0 0 1 6.6503604,-7.355006 7.0830002,7.0831714 0 0 1 7.487028,6.501327"
       sodipodi:open="true"
       inkscape:label="TS" />
    <path
       style="fill:none;stroke:#000000;stroke-width:0.383;stroke-linecap:round;stroke-linejoin:round;stroke-dasharray:0.383, 1.149;stroke-dashoffset:0;paint-order:stroke fill markers"
       id="path6"
       sodipodi:type="arc"
       sodipodi:cx="11.219482"
       sodipodi:cy="-47.20673"
       sodipodi:rx="7.0831714"
       sodipodi:ry="7.0831714"
       sodipodi:start="0"
       sodipodi:end="6.2027722"
       sodipodi:arc-type="arc"
       d="m 18.302654,-47.20673 a 7.0831714,7.0831714 0 0 1 -6.940786,7.08174 7.0831714,7.0831714 0 0 1 -7.2198325,-6.797027 7.0831714,7.0831714 0 0 1 6.6505205,-7.355006 7.0831714,7.0831714 0 0 1 7.487209,6.501327"
       sodipodi:open="true"
       inkscape:label="TD" />
    <path
       style="fill:none;stroke:#000000;stroke-width:0.383;stroke-linecap:round;stroke-linejoin:round;stroke-dasharray:none;paint-order:stroke fill markers"
       id="path5"
       sodipodi:type="arc"
       sodipodi:cx="11.219482"
       sodipodi:cy="-63.511112"
       sodipodi:rx="7.0831714"
       sodipodi:ry="7.0831714"
       sodipodi:start="0"
       sodipodi:end="6.2027722"
       sodipodi:arc-type="arc"
       d="m 18.302654,-63.511112 a 7.0831714,7.0831714 0 0 1 -6.940786,7.08174 7.0831714,7.0831714 0 0 1 -7.2198325,-6.797027 7.0831714,7.0831714 0 0 1 6.6505205,-7.355007 7.0831714,7.0831714 0 0 1 7.487209,6.501328"
       sodipodi:open="true"
       inkscape:label="TL" />
    <path
       style="font-variation-settings:normal;opacity:1;fill:#cccccc;fill-opacity:1;stroke:#000000;stroke-width:1.983;stroke-linecap:round;stroke-linejoin:round;stroke-miterlimit:4;stroke-dasharray:5.949, 5.949;stroke-dashoffset:0;stroke-opacity:1;paint-order:stroke fill markers;stop-color:#000000;stop-opacity:1"
       id="path26"
       sodipodi:type="arc"
       sodipodi:cx="136.05688"
       sodipodi:cy="-30.704197"
       sodipodi:rx="7.0830002"
       sodipodi:ry="7.0831714"
       sodipodi:start="0"
       sodipodi:end="6.2027722"
       sodipodi:arc-type="arc"
       d="m 143.13988,-30.704197 a 7.0830002,7.0831714 0 0 1 -6.94061,7.08174 7.0830002,7.0831714 0 0 1 -7.21966,-6.797027 7.0830002,7.0831714 0 0 1 6.65036,-7.355006 7.0830002,7.0831714 0 0 1 7.48703,6.501327"
       sodipodi:open="true"
       inkscape:label="GSL" />
    <path
       style="fill:#cccccc;stroke:#000000;stroke-width:1.983;stroke-linecap:round;stroke-linejoin:round;stroke-dasharray:1.983, 5.949;stroke-dashoffset:0;paint-order:stroke fill markers"
       id="path27"
       sodipodi:type="arc"
       sodipodi:cx="136.10272"
       sodipodi:cy="-47.20673"
       sodipodi:rx="7.0831714"
       sodipodi:ry="7.0831714"
       sodipodi:start="0"
       sodipodi:end="6.2027722"
       sodipodi:arc-type="arc"
       d="m 143.18589,-47.20673 a 7.0831714,7.0831714 0 0 1 -6.94078,7.08174 7.0831714,7.0831714 0 0 1 -7.21983,-6.797027 7.0831714,7.0831714 0 0 1 6.65052,-7.355006 7.0831714,7.0831714 0 0 1 7.48721,6.501327"
       sodipodi:open="true"
       inkscape:label="GDL" />
    <path
       style="fill:#cccccc;stroke:#000000;stroke-width:1.983;stroke-linecap:round;stroke-linejoin:round;stroke-dasharray:none;paint-order:stroke fill markers"
       id="path28"
       sodipodi:type="arc"
       sodipodi:cx="136.10272"
       sodipodi:cy="-63.511112"
       sodipodi:rx="7.0831714"
       sodipodi:ry="7.0831714"
       sodipodi:start="0"
       sodipodi:end="6.2027722"
       sodipodi:arc-type="arc"
       d="m 143.18589,-63.511112 a 7.0831714,7.0831714 0 0 1 -6.94078,7.08174 7.0831714,7.0831714 0 0 1 -7.21983,-6.797027 7.0831714,7.0831714 0 0 1 6.65052,-7.355007 7.0831714,7.0831714 0 0 1 7.48721,6.501328"
       sodipodi:open="true"
       inkscape:label="GLL" />
    <path
       style="font-variation-settings:normal;opacity:1;fill:#cccccc;fill-opacity:1;stroke:#000000;stroke-width:0.983;stroke-linecap:round;stroke-linejoin:round;stroke-miterlimit:4;stroke-dasharray:2.949, 2.949;stroke-dashoffset:0;stroke-opacity:1;paint-order:stroke fill markers;stop-color:#000000;stop-opacity:1"
       id="path17"
       sodipodi:type="arc"
       sodipodi:cx="81.023735"
       sodipodi:cy="-30.704197"
       sodipodi:rx="7.0830002"
       sodipodi:ry="7.0831714"
       sodipodi:start="0"
       sodipodi:end="6.2027722"
       sodipodi:arc-type="arc"
       d="m 88.106735,-30.704197 a 7.0830002,7.0831714 0 0 1 -6.940618,7.08174 7.0830002,7.0831714 0 0 1 -7.219658,-6.797027 7.0830002,7.0831714 0 0 1 6.65036,-7.355006 7.0830002,7.0831714 0 0 1 7.487028,6.501327"
       sodipodi:open="true"
       inkscape:label="GSM" />
    <path
       style="fill:#cccccc;stroke:#000000;stroke-width:0.983;stroke-linecap:round;stroke-linejoin:round;stroke-dasharray:0.983, 2.949;stroke-dashoffset:0;paint-order:stroke fill markers"
       id="path18"
       sodipodi:type="arc"
       sodipodi:cx="81.069542"
       sodipodi:cy="-47.20673"
       sodipodi:rx="7.0831714"
       sodipodi:ry="7.0831714"
       sodipodi:start="0"
       sodipodi:end="6.2027722"
       sodipodi:arc-type="arc"
       d="m 88.152713,-47.20673 a 7.0831714,7.0831714 0 0 1 -6.940786,7.08174 7.0831714,7.0831714 0 0 1 -7.219832,-6.797027 7.0831714,7.0831714 0 0 1 6.650521,-7.355006 7.0831714,7.0831714 0 0 1 7.487209,6.501327"
       sodipodi:open="true"
       inkscape:label="GDM" />
    <path
       style="fill:#cccccc;stroke:#000000;stroke-width:0.983;stroke-linecap:round;stroke-linejoin:round;stroke-dasharray:none;paint-order:stroke fill markers"
       id="path19"
       sodipodi:type="arc"
       sodipodi:cx="81.069542"
       sodipodi:cy="-63.511112"
       sodipodi:rx="7.0831714"
       sodipodi:ry="7.0831714"
       sodipodi:start="0"
       sodipodi:end="6.2027722"
       sodipodi:arc-type="arc"
       d="m 88.152713,-63.511112 a 7.0831714,7.0831714 0 0 1 -6.940786,7.08174 7.0831714,7.0831714 0 0 1 -7.219832,-6.797027 7.0831714,7.0831714 0 0 1 6.650521,-7.355007 7.0831714,7.0831714 0 0 1 7.487209,6.501328"
       sodipodi:open="true"
       inkscape:label="GLM" />
    <path
       style="font-variation-settings:normal;fill:#cccccc;fill-opacity:1;stroke:#000000;stroke-width:0.383;stroke-linecap:round;stroke-linejoin:round;stroke-miterlimit:4;stroke-dasharray:2.298, 2.298;stroke-dashoffset:0;stroke-opacity:1;paint-order:stroke fill markers;stop-color:#000000"
       id="path6-5-9"
       sodipodi:type="arc"
       sodipodi:cx="27.160959"
       sodipodi:cy="-30.500645"
       sodipodi:rx="7.0830002"
       sodipodi:ry="7.0831714"
       sodipodi:start="0"
       sodipodi:end="6.2027722"
       sodipodi:arc-type="arc"
       d="m 34.243959,-30.500645 a 7.0830002,7.0831714 0 0 1 -6.940618,7.08174 7.0830002,7.0831714 0 0 1 -7.219658,-6.797026 7.0830002,7.0831714 0 0 1 6.650361,-7.355007 7.0830002,7.0831714 0 0 1 7.487027,6.501327"
       sodipodi:open="true"
       inkscape:label="GS" />
    <path
       style="fill:#cccccc;stroke:#000000;stroke-width:0.383;stroke-linecap:round;stroke-linejoin:round;stroke-dasharray:0.383, 1.149;stroke-dashoffset:0;paint-order:stroke fill markers"
       id="path6-7"
       sodipodi:type="arc"
       sodipodi:cx="27.290567"
       sodipodi:cy="-47.135715"
       sodipodi:rx="7.0831714"
       sodipodi:ry="7.0831714"
       sodipodi:start="0"
       sodipodi:end="6.2027722"
       sodipodi:arc-type="arc"
       d="m 34.373739,-47.135715 a 7.0831714,7.0831714 0 0 1 -6.940786,7.08174 7.0831714,7.0831714 0 0 1 -7.219833,-6.797027 7.0831714,7.0831714 0 0 1 6.650521,-7.355007 7.0831714,7.0831714 0 0 1 7.487209,6.501327"
       sodipodi:open="true"
       inkscape:label="GD" />
    <path
       style="font-variation-settings:normal;opacity:1;vector-effect:none;fill:#cccccc;fill-opacity:1;stroke:#000000;stroke-width:0.383;stroke-linecap:round;stroke-linejoin:round;stroke-miterlimit:4;stroke-dasharray:none;stroke-dashoffset:0;stroke-opacity:1;-inkscape-stroke:none;paint-order:stroke fill markers;stop-color:#000000;stop-opacity:1"
       id="path3-2"
       sodipodi:type="arc"
       sodipodi:cx="27.307966"
       sodipodi:cy="-64.015709"
       sodipodi:rx="7.0831714"
       sodipodi:ry="7.0831714"
       sodipodi:start="0"
       sodipodi:end="6.2027722"
       sodipodi:arc-type="arc"
       d="m 34.391138,-64.015709 a 7.0831714,7.0831714 0 0 1 -6.940786,7.08174 7.0831714,7.0831714 0 0 1 -7.219833,-6.797027 7.0831714,7.0831714 0 0 1 6.650521,-7.355006 7.0831714,7.0831714 0 0 1 7.487209,6.501327"
       sodipodi:open="true"
       inkscape:label="GL" />
    <path
       style="fill:#cccccc;stroke:none;stroke-width:0.836946;stroke-linecap:round;stroke-linejoin:round;paint-order:stroke fill markers"
       id="path2"
       sodipodi:type="arc"
       sodipodi:cx="27.315382"
       sodipodi:cy="-80.973389"
       sodipodi:rx="7.0831714"
       sodipodi:ry="7.0831714"
       sodipodi:start="0"
       sodipodi:end="6.2027722"
       sodipodi:arc-type="arc"
       d="m 34.398553,-80.973389 a 7.0831714,7.0831714 0 0 1 -6.940786,7.08174 7.0831714,7.0831714 0 0 1 -7.219832,-6.797026 7.0831714,7.0831714 0 0 1 6.650521,-7.355007 7.0831714,7.0831714 0 0 1 7.487209,6.501327"
       sodipodi:open="true"
       inkscape:label="G" />
    <path
       style="font-variation-settings:normal;opacity:1;fill:#ffffff;fill-opacity:1;stroke:#000000;stroke-width:1.983;stroke-linecap:round;stroke-linejoin:round;stroke-miterlimit:4;stroke-dasharray:5.949, 5.949;stroke-dashoffset:0;stroke-opacity:1;paint-order:stroke fill markers;stop-color:#000000;stop-opacity:1"
       id="path29"
       sodipodi:type="arc"
       sodipodi:cx="154.04831"
       sodipodi:cy="-30.704197"
       sodipodi:rx="7.0830002"
       sodipodi:ry="7.0831714"
       sodipodi:start="0"
       sodipodi:end="6.2027722"
       sodipodi:arc-type="arc"
       d="m 161.13131,-30.704197 a 7.0830002,7.0831714 0 0 1 -6.94062,7.08174 7.0830002,7.0831714 0 0 1 -7.21966,-6.797027 7.0830002,7.0831714 0 0 1 6.65036,-7.355006 7.0830002,7.0831714 0 0 1 7.48703,6.501327"
       sodipodi:open="true"
       inkscape:label="WSL" />
    <path
       style="fill:#ffffff;stroke:#000000;stroke-width:1.983;stroke-linecap:round;stroke-linejoin:round;stroke-dasharray:1.983, 5.949;stroke-dashoffset:0;paint-order:stroke fill markers"
       id="path30"
       sodipodi:type="arc"
       sodipodi:cx="154.09415"
       sodipodi:cy="-47.20673"
       sodipodi:rx="7.0831714"
       sodipodi:ry="7.0831714"
       sodipodi:start="0"
       sodipodi:end="6.2027722"
       sodipodi:arc-type="arc"
       d="m 161.17732,-47.20673 a 7.0831714,7.0831714 0 0 1 -6.94079,7.08174 7.0831714,7.0831714 0 0 1 -7.21983,-6.797027 7.0831714,7.0831714 0 0 1 6.65052,-7.355006 7.0831714,7.0831714 0 0 1 7.48721,6.501327"
       sodipodi:open="true"
       inkscape:label="WDL" />
    <path
       style="fill:#ffffff;stroke:#000000;stroke-width:1.983;stroke-linecap:round;stroke-linejoin:round;stroke-dasharray:none;paint-order:stroke fill markers"
       id="path31"
       sodipodi:type="arc"
       sodipodi:cx="154.09415"
       sodipodi:cy="-63.511112"
       sodipodi:rx="7.0831714"
       sodipodi:ry="7.0831714"
       sodipodi:start="0"
       sodipodi:end="6.2027722"
       sodipodi:arc-type="arc"
       d="m 161.17732,-63.511112 a 7.0831714,7.0831714 0 0 1 -6.94079,7.08174 7.0831714,7.0831714 0 0 1 -7.21983,-6.797027 7.0831714,7.0831714 0 0 1 6.65052,-7.355007 7.0831714,7.0831714 0 0 1 7.48721,6.501328"
       sodipodi:open="true"
       inkscape:label="WLL" />
    <path
       style="font-variation-settings:normal;opacity:1;fill:#ffffff;fill-opacity:1;stroke:#000000;stroke-width:0.983;stroke-linecap:round;stroke-linejoin:round;stroke-miterlimit:4;stroke-dasharray:2.949, 2.949;stroke-dashoffset:0;stroke-opacity:1;paint-order:stroke fill markers;stop-color:#000000;stop-opacity:1"
       id="path20"
       sodipodi:type="arc"
       sodipodi:cx="99.015396"
       sodipodi:cy="-30.704197"
       sodipodi:rx="7.0830002"
       sodipodi:ry="7.0831714"
       sodipodi:start="0"
       sodipodi:end="6.2027722"
       sodipodi:arc-type="arc"
       d="m 106.0984,-30.704197 a 7.0830002,7.0831714 0 0 1 -6.940622,7.08174 7.0830002,7.0831714 0 0 1 -7.219658,-6.797027 7.0830002,7.0831714 0 0 1 6.65036,-7.355006 7.0830002,7.0831714 0 0 1 7.48703,6.501327"
       sodipodi:open="true"
       inkscape:label="WSM" />
    <path
       style="fill:#ffffff;stroke:#000000;stroke-width:0.983;stroke-linecap:round;stroke-linejoin:round;stroke-dasharray:0.983, 2.949;stroke-dashoffset:0;paint-order:stroke fill markers"
       id="path21"
       sodipodi:type="arc"
       sodipodi:cx="99.061234"
       sodipodi:cy="-47.20673"
       sodipodi:rx="7.0831714"
       sodipodi:ry="7.0831714"
       sodipodi:start="0"
       sodipodi:end="6.2027722"
       sodipodi:arc-type="arc"
       d="m 106.1444,-47.20673 a 7.0831714,7.0831714 0 0 1 -6.940781,7.08174 7.0831714,7.0831714 0 0 1 -7.219832,-6.797027 7.0831714,7.0831714 0 0 1 6.650521,-7.355006 7.0831714,7.0831714 0 0 1 7.487212,6.501327"
       sodipodi:open="true"
       inkscape:label="WDM" />
    <path
       style="fill:#ffffff;stroke:#000000;stroke-width:0.983;stroke-linecap:round;stroke-linejoin:round;stroke-dasharray:none;paint-order:stroke fill markers"
       id="path22"
       sodipodi:type="arc"
       sodipodi:cx="99.061234"
       sodipodi:cy="-63.511112"
       sodipodi:rx="7.0831714"
       sodipodi:ry="7.0831714"
       sodipodi:start="0"
       sodipodi:end="6.2027722"
       sodipodi:arc-type="arc"
       d="m 106.1444,-63.511112 a 7.0831714,7.0831714 0 0 1 -6.940781,7.08174 7.0831714,7.0831714 0 0 1 -7.219832,-6.797027 7.0831714,7.0831714 0 0 1 6.650521,-7.355007 7.0831714,7.0831714 0 0 1 7.487212,6.501328"
       sodipodi:open="true"
       inkscape:label="WLM" />
    <path
       style="font-variation-settings:normal;fill:#ffffff;fill-opacity:1;stroke:#000000;stroke-width:0.383;stroke-linecap:round;stroke-linejoin:round;stroke-miterlimit:4;stroke-dasharray:2.298, 2.298;stroke-dashoffset:0;stroke-opacity:1;paint-order:stroke fill markers;stop-color:#000000"
       id="path10"
       sodipodi:type="arc"
       sodipodi:cx="44.094307"
       sodipodi:cy="-30.500645"
       sodipodi:rx="7.0830002"
       sodipodi:ry="7.0831714"
       sodipodi:start="0"
       sodipodi:end="6.2027722"
       sodipodi:arc-type="arc"
       d="m 51.177307,-30.500645 a 7.0830002,7.0831714 0 0 1 -6.940618,7.08174 7.0830002,7.0831714 0 0 1 -7.219658,-6.797026 7.0830002,7.0831714 0 0 1 6.65036,-7.355007 7.0830002,7.0831714 0 0 1 7.487028,6.501327"
       sodipodi:open="true"
       inkscape:label="WS" />
    <path
       style="fill:#ffffff;stroke:#000000;stroke-width:0.383;stroke-linecap:round;stroke-linejoin:round;stroke-dasharray:0.383, 1.149;stroke-dashoffset:0;paint-order:stroke fill markers"
       id="path9"
       sodipodi:type="arc"
       sodipodi:cx="44.223915"
       sodipodi:cy="-47.135715"
       sodipodi:rx="7.0831714"
       sodipodi:ry="7.0831714"
       sodipodi:start="0"
       sodipodi:end="6.2027722"
       sodipodi:arc-type="arc"
       d="m 51.307086,-47.135715 a 7.0831714,7.0831714 0 0 1 -6.940786,7.08174 7.0831714,7.0831714 0 0 1 -7.219832,-6.797027 7.0831714,7.0831714 0 0 1 6.650521,-7.355007 7.0831714,7.0831714 0 0 1 7.487209,6.501327"
       sodipodi:open="true"
       inkscape:label="WD" />
    <path
       style="font-variation-settings:normal;opacity:1;vector-effect:none;fill:#ffffff;fill-opacity:1;stroke:#000000;stroke-width:0.383;stroke-linecap:round;stroke-linejoin:round;stroke-miterlimit:4;stroke-dasharray:none;stroke-dashoffset:0;stroke-opacity:1;-inkscape-stroke:none;paint-order:stroke fill markers;stop-color:#000000;stop-opacity:1"
       id="path8"
       sodipodi:type="arc"
       sodipodi:cx="43.712147"
       sodipodi:cy="-64.015709"
       sodipodi:rx="7.0831714"
       sodipodi:ry="7.0831714"
       sodipodi:start="0"
       sodipodi:end="6.2027722"
       sodipodi:arc-type="arc"
       d="m 50.795318,-64.015709 a 7.0831714,7.0831714 0 0 1 -6.940786,7.08174 7.0831714,7.0831714 0 0 1 -7.219832,-6.797027 7.0831714,7.0831714 0 0 1 6.650521,-7.355006 7.0831714,7.0831714 0 0 1 7.487209,6.501327"
       sodipodi:open="true"
       inkscape:label="WL" />
    <path
       style="fill:#ffffff;stroke:none;stroke-width:0.836946;stroke-linecap:round;stroke-linejoin:round;paint-order:stroke fill markers"
       id="path4"
       sodipodi:type="arc"
       sodipodi:cx="43.794514"
       sodipodi:cy="-80.973389"
       sodipodi:rx="7.0831714"
       sodipodi:ry="7.0831714"
       sodipodi:start="0"
       sodipodi:end="6.2027722"
       sodipodi:arc-type="arc"
       d="m 50.877685,-80.973389 a 7.0831714,7.0831714 0 0 1 -6.940786,7.08174 7.0831714,7.0831714 0 0 1 -7.219832,-6.797026 7.0831714,7.0831714 0 0 1 6.650521,-7.355007 7.0831714,7.0831714 0 0 1 7.487209,6.501327"
       sodipodi:open="true"
       inkscape:label="W" />
    <path
       style="fill:#000000;stroke:none;stroke-width:0.836946;stroke-linecap:round;stroke-linejoin:round;paint-order:stroke fill markers"
       id="path11"
       sodipodi:type="arc"
       sodipodi:cx="11.013137"
       sodipodi:cy="-81.174652"
       sodipodi:rx="7.0831714"
       sodipodi:ry="7.0831714"
       sodipodi:start="0"
       sodipodi:end="6.2027722"
       sodipodi:arc-type="arc"
       d="m 18.096308,-81.174652 a 7.0831714,7.0831714 0 0 1 -6.940786,7.08174 7.0831714,7.0831714 0 0 1 -7.2198321,-6.797027 7.0831714,7.0831714 0 0 1 6.6505211,-7.355007 7.0831714,7.0831714 0 0 1 7.487209,6.501328"
       sodipodi:open="true"
       inkscape:label="B" />
  </g>
</svg>
